<svg width="48" height="47" viewBox="0 0 48 47" fill="none" xmlns="http://www.w3.org/2000/svg">
<rect width="48" height="46.4516" rx="23.2258" fill="#0065B1"/>
<path d="M31.7768 37.161C30.5959 37.161 28.9371 36.734 26.4531 35.3465C23.4325 33.6529 21.0962 32.0894 18.0919 29.0936C15.1954 26.1994 13.7858 24.3256 11.813 20.7364C9.58434 16.6839 9.96426 14.5597 10.3889 13.6518C10.8947 12.5667 11.6412 11.9177 12.6061 11.2736C13.1542 10.9146 13.7342 10.6068 14.3387 10.3542C14.3992 10.3282 14.4555 10.3034 14.5057 10.281C14.8052 10.1462 15.2589 9.94232 15.8336 10.1601C16.2172 10.304 16.5596 10.5986 17.0956 11.1278C18.1948 12.2117 19.6969 14.6256 20.251 15.8111C20.6231 16.6101 20.8693 17.1376 20.8699 17.7291C20.8699 18.4217 20.5215 18.9557 20.0986 19.5322C20.0193 19.6404 19.9407 19.7438 19.8645 19.8443C19.4041 20.4491 19.3031 20.6239 19.3696 20.936C19.5045 21.5632 20.5106 23.4304 22.1639 25.0798C23.8173 26.7292 25.631 27.6716 26.2607 27.8058C26.5862 27.8754 26.7647 27.7702 27.389 27.2935C27.4785 27.2252 27.5705 27.1544 27.6667 27.0837C28.3116 26.604 28.8209 26.2647 29.4973 26.2647H29.5009C30.0895 26.2647 30.5935 26.5199 31.4283 26.9409C32.5173 27.4901 35.0043 28.9726 36.095 30.0728C36.6256 30.6075 36.9214 30.9486 37.066 31.3315C37.2838 31.9079 37.0787 32.3597 36.945 32.6621C36.9226 32.7124 36.8978 32.7674 36.8718 32.8285C36.6171 33.4318 36.3075 34.0105 35.9468 34.5571C35.3037 35.5188 34.6522 36.2634 33.5644 36.7697C33.0059 37.0338 32.3946 37.1676 31.7768 37.161Z" fill="white"/>
</svg>
