<svg width="48" height="47" fill="none" xmlns="http://www.w3.org/2000/svg"><rect width="48" height="46.452" rx="23.226" fill="#0065B1"/><path d="M31.777 37.161c-1.181 0-2.84-.427-5.324-1.815-3.02-1.693-5.357-3.257-8.361-6.252-2.897-2.895-4.306-4.768-6.279-8.358-2.229-4.052-1.849-6.176-1.424-7.084.506-1.085 1.252-1.734 2.217-2.378a10.672 10.672 0 011.733-.92c.06-.026.117-.05.167-.073.3-.135.753-.339 1.328-.12.383.143.726.438 1.262.967 1.099 1.084 2.6 3.498 3.155 4.683.372.8.618 1.327.619 1.918 0 .693-.349 1.227-.771 1.803-.08.108-.158.212-.235.312-.46.605-.56.78-.494 1.092.134.627 1.14 2.494 2.794 4.144 1.653 1.65 3.467 2.592 4.097 2.726.325.07.504-.036 1.128-.512.09-.069.181-.14.278-.21.645-.48 1.154-.82 1.83-.82h.004c.588 0 1.092.256 1.927.677 1.09.55 3.576 2.032 4.667 3.132.53.535.826.876.971 1.258.218.577.013 1.029-.121 1.331l-.073.166a10.68 10.68 0 01-.925 1.73c-.643.96-1.295 1.705-2.383 2.212a4.08 4.08 0 01-1.787.391z" fill="#fff"/></svg>